<svg width="680" height="280" viewBox="0 0 680 280" xmlns="http://www.w3.org/2000/svg">
<defs>
  <linearGradient id="sky" x1="0" y1="0" x2="0" y2="1"><stop offset="0%" stop-color="#03071a"/><stop offset="70%" stop-color="#0b1030"/><stop offset="100%" stop-color="#111b45"/></linearGradient>
  <linearGradient id="flr" x1="0" y1="0" x2="0" y2="1"><stop offset="0%" stop-color="#0a1035"/><stop offset="100%" stop-color="#050818"/></linearGradient>
  <linearGradient id="dsk" x1="0" y1="0" x2="0" y2="1"><stop offset="0%" stop-color="#1a2860"/><stop offset="100%" stop-color="#0b1535"/></linearGradient>
  <linearGradient id="srt" x1="0" y1="1" x2="1" y2="0"><stop offset="0%" stop-color="#1e3a8a"/><stop offset="100%" stop-color="#3730a3"/></linearGradient>
  <linearGradient id="skn" x1="0" y1="0" x2="0" y2="1"><stop offset="0%" stop-color="#d4956a"/><stop offset="100%" stop-color="#b8733e"/></linearGradient>
  <linearGradient id="hr" x1="0" y1="0" x2="0" y2="1"><stop offset="0%" stop-color="#111128"/><stop offset="100%" stop-color="#05050f"/></linearGradient>
  <linearGradient id="mac" x1="0" y1="0" x2="0" y2="1"><stop offset="0%" stop-color="#1e2d62"/><stop offset="100%" stop-color="#111e48"/></linearGradient>
  <linearGradient id="pg" x1="0" y1="0" x2="1" y2="1"><stop offset="0%" stop-color="#4c1d95" stop-opacity="0.5"/><stop offset="100%" stop-color="#1e1b4b" stop-opacity="0"/></linearGradient>
  <linearGradient id="cg" x1="1" y1="0" x2="0" y2="1"><stop offset="0%" stop-color="#0e7490" stop-opacity="0.4"/><stop offset="100%" stop-color="#0c1a3a" stop-opacity="0"/></linearGradient>
  <linearGradient id="tg" x1="0" y1="0" x2="1" y2="0"><stop offset="0%" stop-color="#c4b5fd"/><stop offset="40%" stop-color="#93c5fd"/><stop offset="100%" stop-color="#67e8f9"/></linearGradient>
</defs>

<!-- SKY -->
<rect width="680" height="280" fill="url(#sky)"/>

<!-- AMBIENT GLOWS -->
<ellipse cx="120" cy="160" rx="180" ry="120" fill="url(#pg)"/>
<ellipse cx="580" cy="170" rx="160" ry="100" fill="url(#cg)"/>

<!-- CITY BUILDINGS -->
<rect x="0"   y="155" width="28"  height="125" fill="#05081a"/>
<rect x="24"  y="138" width="22"  height="142" fill="#060920"/>
<rect x="42"  y="162" width="18"  height="118" fill="#05081a"/>
<rect x="56"  y="130" width="30"  height="150" fill="#060a1e"/>
<rect x="82"  y="148" width="20"  height="132" fill="#05081a"/>
<rect x="98"  y="120" width="34"  height="160" fill="#07091f"/>
<rect x="128" y="145" width="22"  height="135" fill="#05081a"/>
<rect x="146" y="132" width="28"  height="148" fill="#060920"/>
<rect x="170" y="155" width="18"  height="125" fill="#05081a"/>
<rect x="184" y="118" width="36"  height="162" fill="#07091f"/>
<rect x="216" y="142" width="24"  height="138" fill="#060a1e"/>
<rect x="236" y="128" width="30"  height="152" fill="#05081a"/>
<rect x="262" y="150" width="20"  height="130" fill="#060920"/>
<rect x="278" y="115" width="38"  height="165" fill="#07091f"/>
<rect x="312" y="138" width="24"  height="142" fill="#05081a"/>
<rect x="332" y="125" width="28"  height="155" fill="#060a1e"/>
<rect x="356" y="148" width="20"  height="132" fill="#05081a"/>
<rect x="372" y="118" width="34"  height="162" fill="#07091f"/>
<rect x="402" y="140" width="22"  height="140" fill="#060920"/>
<rect x="420" y="128" width="30"  height="152" fill="#05081a"/>
<rect x="446" y="152" width="18"  height="128" fill="#060a1e"/>
<rect x="460" y="122" width="36"  height="158" fill="#07091f"/>
<rect x="492" y="145" width="24"  height="135" fill="#05081a"/>
<rect x="512" y="132" width="28"  height="148" fill="#060920"/>
<rect x="536" y="155" width="20"  height="125" fill="#05081a"/>
<rect x="552" y="119" width="34"  height="161" fill="#07091f"/>
<rect x="582" y="142" width="22"  height="138" fill="#060a1e"/>
<rect x="600" y="128" width="30"  height="152" fill="#05081a"/>
<rect x="626" y="148" width="20"  height="132" fill="#060920"/>
<rect x="642" y="116" width="38"  height="164" fill="#07091f"/>

<!-- BUILDING WINDOW LIGHTS -->
<rect x="60"  y="136" width="4" height="3" fill="#fbbf24" fill-opacity="0.5"/>
<rect x="68"  y="136" width="4" height="3" fill="#e0f2fe" fill-opacity="0.35"/>
<rect x="104" y="128" width="5" height="3" fill="#fbbf24" fill-opacity="0.4"/>
<rect x="114" y="128" width="5" height="3" fill="#818cf8" fill-opacity="0.5"/>
<rect x="152" y="140" width="4" height="3" fill="#e0f2fe" fill-opacity="0.35"/>
<rect x="190" y="126" width="5" height="3" fill="#fbbf24" fill-opacity="0.4"/>
<rect x="200" y="126" width="5" height="3" fill="#818cf8" fill-opacity="0.4"/>
<rect x="240" y="135" width="5" height="3" fill="#fbbf24" fill-opacity="0.45"/>
<rect x="284" y="122" width="5" height="3" fill="#fbbf24" fill-opacity="0.45"/>
<rect x="294" y="122" width="5" height="3" fill="#e0f2fe" fill-opacity="0.3"/>
<rect x="340" y="132" width="4" height="3" fill="#818cf8" fill-opacity="0.5"/>
<rect x="378" y="125" width="5" height="3" fill="#fbbf24" fill-opacity="0.4"/>
<rect x="466" y="130" width="5" height="3" fill="#818cf8" fill-opacity="0.45"/>
<rect x="476" y="130" width="5" height="3" fill="#e0f2fe" fill-opacity="0.3"/>
<rect x="520" y="140" width="4" height="3" fill="#fbbf24" fill-opacity="0.4"/>
<rect x="558" y="127" width="4" height="3" fill="#fbbf24" fill-opacity="0.4"/>
<rect x="606" y="135" width="5" height="3" fill="#818cf8" fill-opacity="0.4"/>
<rect x="648" y="123" width="5" height="3" fill="#e0f2fe" fill-opacity="0.35"/>

<!-- HORIZON GLOW -->
<rect x="0" y="195" width="680" height="12" fill="#1e1b4b" fill-opacity="0.25"/>

<!-- FLOOR -->
<rect x="0" y="207" width="680" height="73" fill="url(#flr)"/>
<rect x="0" y="207" width="680" height="1"  fill="#4338ca" fill-opacity="0.6"/>

<!-- WINDOW MULLIONS -->
<rect x="0"   y="0" width="1" height="208" fill="#1e3a8a" fill-opacity="0.4"/>
<rect x="226" y="0" width="1" height="208" fill="#1e3a8a" fill-opacity="0.3"/>
<rect x="452" y="0" width="1" height="208" fill="#1e3a8a" fill-opacity="0.3"/>
<rect x="679" y="0" width="1" height="208" fill="#1e3a8a" fill-opacity="0.4"/>
<rect x="0" y="104" width="680" height="1" fill="#1e3a8a" fill-opacity="0.2"/>

<!-- GLASS TINT -->
<rect width="680" height="208" fill="#06104a" fill-opacity="0.28"/>

<!-- PARTICLES -->
<circle cx="40"  cy="40"  r="1.2" fill="#818cf8" fill-opacity="0.7"/>
<circle cx="95"  cy="22"  r="0.9" fill="#38bdf8" fill-opacity="0.6"/>
<circle cx="160" cy="55"  r="1.2" fill="#a78bfa" fill-opacity="0.7"/>
<circle cx="220" cy="30"  r="0.9" fill="#06b6d4" fill-opacity="0.6"/>
<circle cx="300" cy="18"  r="1.2" fill="#818cf8" fill-opacity="0.5"/>
<circle cx="370" cy="48"  r="0.9" fill="#a78bfa" fill-opacity="0.7"/>
<circle cx="430" cy="25"  r="1.2" fill="#38bdf8" fill-opacity="0.6"/>
<circle cx="510" cy="60"  r="0.9" fill="#818cf8" fill-opacity="0.5"/>
<circle cx="575" cy="20"  r="1.2" fill="#06b6d4" fill-opacity="0.7"/>
<circle cx="638" cy="44"  r="0.9" fill="#a78bfa" fill-opacity="0.6"/>
<circle cx="340" cy="12"  r="1.0" fill="#c4b5fd" fill-opacity="0.6"/>
<circle cx="18"  cy="80"  r="0.9" fill="#38bdf8" fill-opacity="0.4"/>
<circle cx="662" cy="70"  r="1.0" fill="#818cf8" fill-opacity="0.4"/>

<!-- DESK -->
<rect x="60" y="207" width="560" height="14" rx="2" fill="url(#dsk)"/>
<rect x="60" y="219" width="560" height="4"  rx="1" fill="#080f2a"/>
<rect x="60" y="208" width="560" height="1"  fill="#4338ca" fill-opacity="0.5"/>

<!-- MACBOOK BASE -->
<rect x="360" y="198" width="110" height="4" rx="1" fill="#131e44"/>
<rect x="355" y="200" width="120" height="3" rx="1" fill="#0a1030"/>
<!-- KEYBOARD -->
<rect x="362" y="184" width="106" height="18" rx="2" fill="#0a1232"/>
<rect x="396" y="196" width="28"  height="5"  rx="1" fill="#111e46"/>
<rect x="366" y="187" width="98" height="2" rx="1" fill="#1a2654" fill-opacity="0.8"/>
<rect x="366" y="192" width="98" height="2" rx="1" fill="#1a2654" fill-opacity="0.8"/>
<!-- LID -->
<rect x="358" y="138" width="114" height="50" rx="4" fill="url(#mac)"/>
<rect x="358" y="138" width="114" height="50" rx="4" fill="none" stroke="#1e3a8a" stroke-width="0.7"/>
<!-- SCREEN -->
<rect x="364" y="143" width="102" height="41" rx="2" fill="#020c22"/>
<!-- CODE ON SCREEN -->
<text x="370" y="155" font-family="monospace" font-size="5" fill="#7c3aed">from</text>
<text x="392" y="155" font-family="monospace" font-size="5" fill="#e2e8f0">langgraph</text>
<text x="432" y="155" font-family="monospace" font-size="5" fill="#7c3aed">import</text>
<text x="460" y="155" font-family="monospace" font-size="5" fill="#94a3b8"> *</text>
<text x="370" y="163" font-family="monospace" font-size="5" fill="#34d399">class</text>
<text x="392" y="163" font-family="monospace" font-size="5" fill="#fbbf24">AgentState</text>
<text x="438" y="163" font-family="monospace" font-size="5" fill="#94a3b8">:</text>
<text x="370" y="171" font-family="monospace" font-size="5" fill="#94a3b8">  messages:</text>
<text x="428" y="171" font-family="monospace" font-size="5" fill="#38bdf8">list</text>
<text x="370" y="179" font-family="monospace" font-size="5" fill="#94a3b8">  context:</text>
<text x="424" y="179" font-family="monospace" font-size="5" fill="#38bdf8">str</text>
<rect x="370" y="181" width="4" height="5" fill="#38bdf8" fill-opacity="0.9"/>

<!-- CHARACTER CHAIR -->
<rect x="476" y="168" width="6"  height="44" rx="2" fill="#0a1232"/>
<rect x="540" y="168" width="6"  height="44" rx="2" fill="#0a1232"/>
<rect x="476" y="162" width="70" height="16" rx="5" fill="#0f1940"/>
<rect x="476" y="162" width="70" height="16" rx="5" fill="none" stroke="#1e3a8a" stroke-width="0.5"/>
<!-- BODY -->
<rect x="485" y="164" width="52" height="48" rx="6" fill="url(#srt)"/>
<!-- COLLAR -->
<rect x="505" y="163" width="12" height="10" rx="2" fill="#e2e8f0"/>
<rect x="509" y="163" width="4"  height="13" rx="1" fill="#1e3a8a"/>
<!-- ARMS -->
<rect x="465" y="185" width="26" height="12" rx="6" fill="url(#srt)"/>
<rect x="465" y="188" width="14" height="9"  rx="4" fill="url(#skn)"/>
<rect x="531" y="182" width="30" height="12" rx="6" fill="url(#srt)"/>
<rect x="548" y="185" width="14" height="9"  rx="4" fill="url(#skn)"/>
<!-- NECK -->
<rect x="507" y="152" width="10" height="16" rx="4" fill="url(#skn)"/>
<!-- HEAD -->
<ellipse cx="512" cy="140" rx="22" ry="23" fill="url(#skn)"/>
<!-- HAIR -->
<ellipse cx="512" cy="124" rx="22" ry="14" fill="url(#hr)"/>
<ellipse cx="493" cy="127" rx="9"  ry="12" fill="url(#hr)"/>
<ellipse cx="531" cy="127" rx="9"  ry="12" fill="url(#hr)"/>
<path d="M494 122 Q512 115 530 118" fill="none" stroke="#1a1a35" stroke-width="1"/>
<!-- EYES -->
<ellipse cx="504" cy="140" rx="4.5" ry="3.5" fill="#120800"/>
<circle  cx="504" cy="139" r="2.5"  fill="#0d0500"/>
<circle  cx="505" cy="138" r="0.9"  fill="#ffffff" fill-opacity="0.7"/>
<path d="M499 138 Q504 136 509 138" fill="none" stroke="#0d0500" stroke-width="1"/>
<ellipse cx="520" cy="140" rx="4.5" ry="3.5" fill="#120800"/>
<circle  cx="520" cy="139" r="2.5"  fill="#0d0500"/>
<circle  cx="521" cy="138" r="0.9"  fill="#ffffff" fill-opacity="0.7"/>
<path d="M515 138 Q520 136 525 138" fill="none" stroke="#0d0500" stroke-width="1"/>
<!-- GLASSES -->
<rect x="498" y="137" width="10" height="6" rx="3" fill="none" stroke="#38bdf8" stroke-width="0.8" stroke-opacity="0.8"/>
<rect x="514" y="137" width="10" height="6" rx="3" fill="none" stroke="#38bdf8" stroke-width="0.8" stroke-opacity="0.8"/>
<line x1="508" y1="140" x2="514" y2="140" stroke="#38bdf8" stroke-width="0.7" stroke-opacity="0.8"/>
<line x1="498" y1="140" x2="494" y2="140" stroke="#38bdf8" stroke-width="0.7" stroke-opacity="0.8"/>
<line x1="524" y1="140" x2="528" y2="140" stroke="#38bdf8" stroke-width="0.7" stroke-opacity="0.8"/>
<!-- NOSE + MOUTH -->
<path d="M510 145 Q512 148 514 145" fill="none" stroke="#9a6040" stroke-width="0.8"/>
<path d="M506 152 Q512 156 518 152" fill="none" stroke="#7a4020" stroke-width="1" stroke-linecap="round"/>
<!-- EARS -->
<ellipse cx="490" cy="141" rx="3" ry="5" fill="#c4804a"/>
<ellipse cx="534" cy="141" rx="3" ry="5" fill="#c4804a"/>

<!-- NEURAL CORE HOLOGRAM -->
<circle cx="160" cy="115" r="52" fill="none" stroke="#818cf8" stroke-width="0.6" stroke-opacity="0.3" stroke-dasharray="4 3"/>
<circle cx="160" cy="115" r="38" fill="none" stroke="#38bdf8" stroke-width="0.6" stroke-opacity="0.4" stroke-dasharray="6 4"/>
<circle cx="160" cy="115" r="24" fill="#0d1a45" fill-opacity="0.9"/>
<circle cx="160" cy="115" r="24" fill="none" stroke="#818cf8" stroke-width="1"/>
<circle cx="160" cy="115" r="16" fill="#0a1040" fill-opacity="0.8"/>
<circle cx="160" cy="115" r="8"  fill="#3730a3" fill-opacity="0.7"/>
<circle cx="160" cy="115" r="4"  fill="#818cf8" fill-opacity="0.8"/>
<text x="160" y="113" font-family="monospace" font-size="5" fill="#c4b5fd" text-anchor="middle" font-weight="bold">NEURAL</text>
<text x="160" y="120" font-family="monospace" font-size="4.5" fill="#818cf8" text-anchor="middle">CORE</text>

<!-- ORBIT NODES -->
<circle cx="160" cy="63"  r="7" fill="#1e1b4b" stroke="#818cf8" stroke-width="1"/>
<text   x="160" y="67"   font-family="monospace" font-size="4.5" fill="#a78bfa" text-anchor="middle">RAG</text>
<line x1="160" y1="70"  x2="160" y2="91" stroke="#818cf8" stroke-width="0.7" stroke-opacity="0.6"/>

<circle cx="212" cy="115" r="7" fill="#0c1a3a" stroke="#38bdf8" stroke-width="1"/>
<text   x="212" y="119"  font-family="monospace" font-size="4.5" fill="#93c5fd" text-anchor="middle">MCP</text>
<line x1="205" y1="115" x2="184" y2="115" stroke="#38bdf8" stroke-width="0.7" stroke-opacity="0.6"/>

<circle cx="160" cy="167" r="7" fill="#064e3b" stroke="#34d399" stroke-width="1"/>
<text   x="160" y="171"  font-family="monospace" font-size="4.5" fill="#6ee7b7" text-anchor="middle">ACT</text>
<line x1="160" y1="160" x2="160" y2="139" stroke="#34d399" stroke-width="0.7" stroke-opacity="0.6"/>

<circle cx="108" cy="115" r="7" fill="#1e3a8a" stroke="#06b6d4" stroke-width="1"/>
<text   x="108" y="119"  font-family="monospace" font-size="4.5" fill="#67e8f9" text-anchor="middle">LLM</text>
<line x1="115" y1="115" x2="136" y2="115" stroke="#06b6d4" stroke-width="0.7" stroke-opacity="0.6"/>

<circle cx="198" cy="78"  r="5" fill="#4c1d95" stroke="#a78bfa" stroke-width="0.8"/>
<text   x="198" y="82"   font-family="monospace" font-size="4" fill="#c4b5fd" text-anchor="middle">VEC</text>
<line x1="194" y1="82"  x2="182" y2="97" stroke="#a78bfa" stroke-width="0.6" stroke-opacity="0.5"/>

<circle cx="122" cy="78"  r="5" fill="#0c1a3a" stroke="#38bdf8" stroke-width="0.8"/>
<text   x="122" y="82"   font-family="monospace" font-size="4" fill="#93c5fd" text-anchor="middle">EMB</text>
<line x1="126" y1="82"  x2="140" y2="96" stroke="#38bdf8" stroke-width="0.6" stroke-opacity="0.5"/>

<circle cx="198" cy="152" r="5" fill="#0c1a3a" stroke="#06b6d4" stroke-width="0.8"/>
<text   x="198" y="156"  font-family="monospace" font-size="4" fill="#67e8f9" text-anchor="middle">API</text>
<line x1="194" y1="152" x2="180" y2="138" stroke="#06b6d4" stroke-width="0.6" stroke-opacity="0.5"/>

<circle cx="122" cy="152" r="5" fill="#064e3b" stroke="#34d399" stroke-width="0.8"/>
<text   x="122" y="156"  font-family="monospace" font-size="4" fill="#6ee7b7" text-anchor="middle">MEM</text>
<line x1="126" y1="152" x2="140" y2="138" stroke="#34d399" stroke-width="0.6" stroke-opacity="0.5"/>

<!-- CONNECTION LINE HOLO TO CHARACTER -->
<line x1="212" y1="115" x2="360" y2="180" stroke="#818cf8" stroke-width="0.5" stroke-opacity="0.2" stroke-dasharray="4 4"/>

<!-- TITLE -->
<text x="340" y="78" font-family="monospace" font-size="36" font-weight="bold" fill="url(#tg)" text-anchor="middle" letter-spacing="4">ANKIT</text>
<text x="340" y="78" font-family="monospace" font-size="36" font-weight="bold" fill="none" stroke="#818cf8" stroke-width="0.4" stroke-opacity="0.4" text-anchor="middle" letter-spacing="4">ANKIT</text>
<text x="340" y="96" font-family="monospace" font-size="9" fill="#818cf8" text-anchor="middle" letter-spacing="3" fill-opacity="0.9">KUMAR</text>

<!-- ROLE PILL -->
<rect x="258" y="104" width="164" height="18" rx="9" fill="#0c0d2a"/>
<rect x="258" y="104" width="164" height="18" rx="9" fill="none" stroke="#818cf8" stroke-width="0.7" stroke-opacity="0.6"/>
<text x="340" y="117" font-family="monospace" font-size="8" fill="#a78bfa" text-anchor="middle" letter-spacing="1">AI ENGINEER  ·  AGENT BUILDER</text>

<!-- TECH PILLS -->
<rect x="263" y="130" width="44" height="13" rx="6" fill="#1e1b4b"/>
<rect x="263" y="130" width="44" height="13" rx="6" fill="none" stroke="#818cf8" stroke-width="0.6"/>
<text x="285" y="140" font-family="monospace" font-size="6.5" fill="#a78bfa" text-anchor="middle">LangGraph</text>

<rect x="313" y="130" width="36" height="13" rx="6" fill="#064e3b"/>
<rect x="313" y="130" width="36" height="13" rx="6" fill="none" stroke="#34d399" stroke-width="0.6"/>
<text x="331" y="140" font-family="monospace" font-size="6.5" fill="#6ee7b7" text-anchor="middle">Pinecone</text>

<rect x="355" y="130" width="30" height="13" rx="6" fill="#0c1a3a"/>
<rect x="355" y="130" width="30" height="13" rx="6" fill="none" stroke="#38bdf8" stroke-width="0.6"/>
<text x="370" y="140" font-family="monospace" font-size="6.5" fill="#93c5fd" text-anchor="middle">FastAPI</text>

<rect x="391" y="130" width="26" height="13" rx="6" fill="#1e3a8a"/>
<rect x="391" y="130" width="26" height="13" rx="6" fill="none" stroke="#06b6d4" stroke-width="0.6"/>
<text x="404" y="140" font-family="monospace" font-size="6.5" fill="#67e8f9" text-anchor="middle">MCP</text>

<!-- BOTTOM STATUS BAR -->
<rect x="0" y="252" width="680" height="28" fill="#03051a" fill-opacity="0.95"/>
<line x1="0" y1="252" x2="680" y2="252" stroke="#818cf8" stroke-width="0.5" stroke-opacity="0.5"/>
<circle cx="24" cy="266" r="4" fill="#34d399"/>
<text x="34" y="270" font-family="monospace" font-size="7.5" fill="#6ee7b7">Open to opportunities</text>
<line x1="198" y1="258" x2="198" y2="276" stroke="#1e3a8a" stroke-width="0.5" stroke-opacity="0.5"/>
<text x="210" y="270" font-family="monospace" font-size="7.5" fill="#475569">Noida, India  </text>
<text x="272" y="270" font-family="monospace" font-size="7.5" fill="#4338ca">→  </text>
<text x="286" y="270" font-family="monospace" font-size="7.5" fill="#67e8f9">UK relocation ready</text>
<text x="656" y="270" font-family="monospace" font-size="7.5" fill="#818cf8" text-anchor="end">github.com/KumarAnkit67</text>
</svg>
